<svg xmlns="http://www.w3.org/2000/svg" width="200" height="200" viewBox="0 0 200 200">
  <rect width="200" height="200" fill="#f5ede8"/>
  <!-- QR corner marks -->
  <rect x="20" y="20" width="60" height="60" rx="4" fill="none" stroke="#c97b6a" stroke-width="6"/>
  <rect x="30" y="30" width="40" height="40" rx="2" fill="#c97b6a"/>
  <rect x="120" y="20" width="60" height="60" rx="4" fill="none" stroke="#c97b6a" stroke-width="6"/>
  <rect x="130" y="30" width="40" height="40" rx="2" fill="#c97b6a"/>
  <rect x="20" y="120" width="60" height="60" rx="4" fill="none" stroke="#c97b6a" stroke-width="6"/>
  <rect x="30" y="130" width="40" height="40" rx="2" fill="#c97b6a"/>
  <!-- QR data dots -->
  <rect x="90" y="90" width="20" height="20" fill="#c97b6a"/>
  <rect x="115" y="90" width="8" height="8" fill="#c97b6a"/>
  <rect x="130" y="90" width="8" height="8" fill="#c97b6a"/>
  <rect x="90" y="115" width="8" height="8" fill="#c97b6a"/>
  <rect x="105" y="115" width="8" height="8" fill="#c97b6a"/>
  <rect x="120" y="115" width="8" height="8" fill="#c97b6a"/>
  <rect x="140" y="115" width="8" height="8" fill="#c97b6a"/>
  <rect x="90" y="130" width="8" height="8" fill="#c97b6a"/>
  <rect x="110" y="130" width="8" height="8" fill="#c97b6a"/>
  <rect x="130" y="130" width="8" height="8" fill="#c97b6a"/>
  <rect x="155" y="130" width="8" height="8" fill="#c97b6a"/>
  <text x="100" y="185" font-family="sans-serif" font-size="10" fill="#c97b6a" text-anchor="middle">上传您的二维码</text>
</svg>
